<svg width="24" height="24" viewBox="0 0 24 24" fill="none" xmlns="http://www.w3.org/2000/svg">
<g clip-path="url(#clip0_906_16)">
<path d="M9.52997 16.122C9.26836 15.4771 8.79065 14.9431 8.17865 14.6117C7.56665 14.2802 6.85845 14.1719 6.17535 14.3052C5.49225 14.4385 4.87675 14.8052 4.43428 15.3424C3.99181 15.8797 3.7499 16.554 3.74998 17.25C3.74998 17.5581 3.6867 17.863 3.56406 18.1456C3.44142 18.4283 3.26203 18.6827 3.03702 18.8932C2.81201 19.1037 2.54616 19.2657 2.25597 19.3692C1.96577 19.4727 1.6574 19.5156 1.34998 19.495C1.84442 20.354 2.60861 21.0257 3.5239 21.4058C4.43919 21.786 5.45438 21.8533 6.41187 21.5974C7.36937 21.3415 8.21559 20.7767 8.81919 19.9906C9.42278 19.2045 9.74998 18.2411 9.74998 17.25C9.74998 16.851 9.67197 16.47 9.52997 16.122ZM9.52997 16.122C10.719 15.7169 11.8562 15.1732 12.918 14.502M7.87498 14.477C8.28018 13.2855 8.82462 12.1459 9.49697 11.082M12.917 14.502C14.8133 13.3039 16.4365 11.7203 17.681 9.85401L21.557 4.04001C21.7055 3.81857 21.7725 3.55246 21.7465 3.28711C21.7206 3.02176 21.6034 2.77363 21.4149 2.58511C21.2264 2.39658 20.9782 2.27935 20.7129 2.25344C20.4475 2.22752 20.1814 2.29453 19.96 2.44301L14.146 6.32001C12.2795 7.56415 10.6955 9.18694 9.49697 11.083C11.0189 11.7635 12.2365 12.9811 12.917 14.503" stroke="#57534E" stroke-width="2" stroke-linecap="round" stroke-linejoin="round"/>
</g>
<defs>
<clipPath id="clip0_906_16">
<rect width="24" height="24" fill="white"/>
</clipPath>
</defs>
</svg>
